<svg xmlns="http://www.w3.org/2000/svg" xmlns:xlink="http://www.w3.org/1999/xlink" version="1.1"
     width="3144.578313253012"
     height="1079.3510451473808" viewBox="0 0 3144.578313253012 1079.3510451473808">

    <g transform="scale(7.228915662650603) translate(10, 10)">
        <defs id="SvgjsDefs1001">
            <linearGradient id="SvgjsLinearGradient1015">
                <stop id="SvgjsStop1016" stop-color="#905e26" offset="0"></stop>
                <stop id="SvgjsStop1017" stop-color="#f5ec9b" offset="0.5"></stop>
                <stop id="SvgjsStop1018" stop-color="#905e26" offset="1"></stop>
            </linearGradient>
            <linearGradient id="SvgjsLinearGradient1019">
                <stop id="SvgjsStop1020" stop-color="#905e26" offset="0"></stop>
                <stop id="SvgjsStop1021" stop-color="#f5ec9b" offset="0.5"></stop>
                <stop id="SvgjsStop1022" stop-color="#905e26" offset="1"></stop>
            </linearGradient>
            <linearGradient id="SvgjsLinearGradient1023">
                <stop id="SvgjsStop1024" stop-color="#905e26" offset="0"></stop>
                <stop id="SvgjsStop1025" stop-color="#f5ec9b" offset="0.5"></stop>
                <stop id="SvgjsStop1026" stop-color="#905e26" offset="1"></stop>
            </linearGradient>
        </defs>
        <g id="SvgjsG1007" featureKey="symbolGroupContainer"
           transform="matrix(1.2208962440490723,0,0,1.2208962440490723,0.03062753068727575,0.000010413854827567034)"
           fill="#8a0917">
            <path xmlns="http://www.w3.org/2000/svg"
                  d="M101.3 44.9l-.5-2.1a48.1 48.1 0 0 0-1.3-6.1c-.3-1.1-.7-2.2-1.1-3.3l-.6-1.6-.7-1.6A50.9 50.9 0 0 0 78.7 8.5a50.5 50.5 0 0 0-20.6-8 55.7 55.7 0 0 0-7.4-.5A50.7 50.7 0 0 0 4.3 30.2l-.7 1.6-.6 1.6c-.4 1.1-.8 2.2-1.1 3.3a50.1 50.1 0 0 0-1.4 6.7 51.4 51.4 0 0 0-.2 13.1 53 53 0 0 0 1.4 7.3l.3 1.5a50.6 50.6 0 0 0 5 13.9 52.4 52.4 0 0 0 4 6.3 55.9 55.9 0 0 0 4.9 5.6A50.7 50.7 0 0 0 70 102.5l1.6-.7 1.6-.7 3.1-1.6a50.1 50.1 0 0 0 5.7-3.6 51.5 51.5 0 0 0 9.4-9.1 50.6 50.6 0 0 0 6.5-10.6 51.7 51.7 0 0 0 3.5-11.1 51.1 51.1 0 0 0-.1-20.2zm-.8-1.5a52.2 52.2 0 0 1 .2 13.1 50.3 50.3 0 0 1-2.9 12 51.5 51.5 0 0 1-5.3 10.3l-.3.4a45.4 45.4 0 0 0 2.8-5.1c.5-1 .8-2 1.2-3s.7-2 1-3a46.3 46.3 0 0 0 1.2-6.1c.1-1 .3-2 .3-3.1s.1-1 .1-1.5v-1.5c0-1 0-2-.1-3s-.1-2-.3-3a46.5 46.5 0 0 0-2.7-11.1 47.5 47.5 0 0 0-4.9-9.5 47 47 0 0 0-10.2-10.9 46.8 46.8 0 0 0-53.8-7.1l4.1-2.1a51.6 51.6 0 0 1 11-3.6 50.9 50.9 0 0 1 20.1.2 50 50 0 0 1 14.6 5.5 48.2 48.2 0 0 1 8.3 5.7l2 1.8.7.6.6.7 1.8 2a48.1 48.1 0 0 1 5.8 8.2 50.6 50.6 0 0 1 4.1 9.7c.3 1.1.5 2.3.6 3.4zM2.3 65.2A50.7 50.7 0 0 1 3 42.3l-.3 1.4A47 47 0 0 0 5 69.8c.4 1 .8 2 1.3 3s.9 1.9 1.5 2.8a46.3 46.3 0 0 0 3.4 5.3l1.9 2.4 1 1.2 1 1.1 2.2 2.1 2.3 1.9 2.5 1.8a45.4 45.4 0 0 0 4.1 3 47.3 47.3 0 0 0 6.9 3.7A49.3 49.3 0 0 1 23 93 51 51 0 0 1 8.7 78.8a51.6 51.6 0 0 1-5.3-10.3q-.5-1.4-1-2.9zm75.2 28.2a45.9 45.9 0 0 1-12 5.6 47.2 47.2 0 0 1-6.6 1.4 50.5 50.5 0 0 1-6.7.5A45.7 45.7 0 0 1 35 97.5l4.5 1.1a47.1 47.1 0 0 0 18.6-.2 47.4 47.4 0 0 0 13.4-5.1A44.2 44.2 0 0 0 79 88l1.8-1.6.6-.6.6-.6 1.7-1.8a44.3 44.3 0 0 0 5.4-7.5 47.8 47.8 0 0 0 5.2-13.4 47.2 47.2 0 0 0 .3-18.7 46 46 0 0 0-9.1-20.1c-.9-1.1-1.8-2.2-2.8-3.3a46.2 46.2 0 0 1 7.9 9.1 47.1 47.1 0 0 1 4.7 9.5 45.9 45.9 0 0 1 2.6 11c.1 1 .2 1.9.2 2.9s.1 2 0 3v1.5c0 .5-.1 1-.1 1.5s-.2 2-.3 3a45.5 45.5 0 0 1-1.3 6c-.3 1-.6 2-1 3s-.7 2-1.2 2.9a46 46 0 0 1-16.7 19.6zm-9.3-81.6l2.5 1.3a44.9 44.9 0 0 1 5.1 3.3l2.3 1.9 1.1 1 1.1 1 2.1 2.1 1.9 2.2a45.5 45.5 0 0 1 5.9 9.5 48.1 48.1 0 0 1 3.3 10 46.3 46.3 0 0 1 .1 18.3 45.4 45.4 0 0 1-10.1 20.9l-1.6 1.8-.6.6-.6.6-1.8 1.6a44.1 44.1 0 0 1-7.5 5.3 44.6 44.6 0 0 1-13.4 5 46.4 46.4 0 0 1-18.4 0 47 47 0 0 1-9.4-3l-3.2-2a46.2 46.2 0 0 1-16.5-19.5c-.5-.9-.8-1.9-1.2-2.9s-.7-2-.9-3a45 45 0 0 1-1.3-6c-.1-1-.3-2-.3-3s-.1-1-.1-1.5v-4.4c0-1 .1-1.9.2-2.9a45.6 45.6 0 0 1 2.5-10.9 48.1 48.1 0 0 1 4.7-9.4 46.3 46.3 0 0 1 12.9-13 45.4 45.4 0 0 1 22-7.6h6.5a44 44 0 0 1 9.1 1.6zm-3.6-1.3a44.2 44.2 0 0 0-9.1-1.6h-6.6a44.2 44.2 0 0 0-9.1 1.5 47.9 47.9 0 0 0-13.1 5.8 47.2 47.2 0 0 0-13.4 13 46.6 46.6 0 0 0 3.2 56.7l-.8-.8-1-1.1-1-1.1-1.9-2.4a45.4 45.4 0 0 1-3.3-5.2c-.5-.9-1-1.8-1.4-2.8s-.9-1.9-1.2-2.9a45.9 45.9 0 0 1 2.3-38.2 47.5 47.5 0 0 1 3.6-5.7 50.6 50.6 0 0 1 4.4-5.1A45.6 45.6 0 0 1 39.6 8.3 46.2 46.2 0 0 1 65 10.4l1.5.6zM.5 56.5a51.5 51.5 0 0 1 .2-13.1 50 50 0 0 1 1.4-6.6c.3-1.1.7-2.2 1.1-3.3l.6-1.6.7-1.6a50.4 50.4 0 0 1 92.2 0l.7 1.6.6 1.6c.4 1.1.8 2.2 1 3.3s.4 1.5.6 2.3a50.7 50.7 0 0 0-3.9-8.8 48.3 48.3 0 0 0-5.8-8.2l-1.8-2-.6-.7-.7-.6-2-1.8a48.3 48.3 0 0 0-8.2-5.8 50.1 50.1 0 0 0-14.5-5.6 51.2 51.2 0 0 0-20.2-.1A51.8 51.8 0 0 0 30.8 9 50.5 50.5 0 0 0 7.3 30.7c-.6 1-1.1 2-1.6 3.1L5 35.3l-.7 1.6a51 51 0 0 0-2.9 25 54 54 0 0 1-.9-5.4zm100.8 8.6a51.5 51.5 0 0 1-3.6 11 50.4 50.4 0 0 1-6.5 10.6 51.5 51.5 0 0 1-9.4 9.1 50 50 0 0 1-5.7 3.7l-3 1.5-1.6.7-1.6.7A50.5 50.5 0 0 1 2.7 67.2l.5 1.4a51.8 51.8 0 0 0 5.4 10.3 51.1 51.1 0 0 0 14.3 14.2 49.6 49.6 0 0 0 11.2 5.5l4.4 1.6a48.7 48.7 0 0 0 6.7 1.5 51.5 51.5 0 0 0 6.9.5 46.8 46.8 0 0 0 38.2-19.9c.9-1.1 1.7-2.2 2.5-3.4a51.8 51.8 0 0 0 5.3-10.3 50.6 50.6 0 0 0 2.9-24.7l.2 1a51 51 0 0 1 .1 20.2z"></path>
        </g>
        <g id="SvgjsG1008" featureKey="symbolFeature-0"
           transform="matrix(0.8944698572158813,0,0,0.8944698572158813,18.527650763545502,20.248298860424793)"
           fill="url(#SvgjsLinearGradient1015)">
            <path xmlns="http://www.w3.org/2000/svg"
                  d="M80.4,23.2H19.6c-8,0-14.6,6.5-14.6,14.6c0,5.8,4.7,10.5,10.5,10.5c5.8,0,10.5-4.7,10.5-10.5c0-3.6-2.9-6.5-6.5-6.5  c-3.6,0-6.5,2.9-6.5,6.5c0,1.3,1.1,2.4,2.4,2.4c1.3,0,2.4-1.1,2.4-2.4c0-0.9,0.7-1.6,1.6-1.6c0.9,0,1.6,0.7,1.6,1.6  c0,3.1-2.5,5.7-5.7,5.7c-3.1,0-5.7-2.5-5.7-5.7c0-5.4,4.4-9.7,9.7-9.7h60.8c5.4,0,9.7,4.4,9.7,9.7c0,3.1-2.5,5.7-5.7,5.7  c-3.1,0-5.7-2.5-5.7-5.7c0-0.9,0.7-1.6,1.6-1.6c0.9,0,1.6,0.7,1.6,1.6c0,1.3,1.1,2.4,2.4,2.4c1.3,0,2.4-1.1,2.4-2.4  c0-3.6-2.9-6.5-6.5-6.5c-3.6,0-6.5,2.9-6.5,6.5c0,5.8,4.7,10.5,10.5,10.5c5.8,0,10.5-4.7,10.5-10.5C95,29.8,88.5,23.2,80.4,23.2z"></path>
            <path xmlns="http://www.w3.org/2000/svg"
                  d="M34.2,74.3V33.8c0-1.3-1.1-2.4-2.4-2.4c-1.3,0-2.4,1.1-2.4,2.4v40.5c0,1.3,1.1,2.4,2.4,2.4C33.1,76.8,34.2,75.7,34.2,74.3z"></path>
            <path xmlns="http://www.w3.org/2000/svg"
                  d="M46.4,74.3V33.8c0-1.3-1.1-2.4-2.4-2.4c-1.3,0-2.4,1.1-2.4,2.4v40.5c0,1.3,1.1,2.4,2.4,2.4C45.3,76.8,46.4,75.7,46.4,74.3z"></path>
            <path xmlns="http://www.w3.org/2000/svg"
                  d="M58.5,74.3V33.8c0-1.3-1.1-2.4-2.4-2.4c-1.3,0-2.4,1.1-2.4,2.4v40.5c0,1.3,1.1,2.4,2.4,2.4C57.4,76.8,58.5,75.7,58.5,74.3z"></path>
            <path xmlns="http://www.w3.org/2000/svg"
                  d="M70.7,74.3V33.8c0-1.3-1.1-2.4-2.4-2.4c-1.3,0-2.4,1.1-2.4,2.4v40.5c0,1.3,1.1,2.4,2.4,2.4C69.6,76.8,70.7,75.7,70.7,74.3z"></path>
        </g>
        <g id="SvgjsG1009" featureKey="nameFeature-0"
           transform="matrix(1.3611894845962524,0,0,1.3611894845962524,140.45574678559575,10.008879622944164)"
           fill="url(#SvgjsLinearGradient1019)">
            <path d="M27.8884 16.95056 c2.974688 0 7.40016 1.831876 7.40016 6.87776 s-4.11284 6.87752 -6.87752 6.87752 l-20.344 0 l-0.033477 9.06852 l-4.69512 -0.017539 l0.075586 -20.45488 l0 -2.351368 l0.008633 0 l0 -0.008633 l2.347696 0.008633 l22.118 0 z M29.71112 25.64736 c0.436328 -0.241445 0.882616 -0.646092 0.882344 -1.819024 c0 -0.94328 -0.319141 -1.453908 -1.138944 -1.821444 c-0.745 -0.334024 -1.558516 -0.360976 -1.566092 -0.360976 l-19.77896 0 l0 4.36448 l20.2812 0 c0.204805 -0.00707 0.816368 -0.084219 1.320428 -0.363047 z M46.62752 40.049219 l-4.64912 0 l0 -22.59072 l4.64912 0 l0 22.59072 z M58.03388 35.23796 l27.1796 0 l0 4.6954 l-31.875 0 l0 -22.81488 l4.6954 0 l0 18.11948 z M96.63388 35.23796 l27.1796 0 l0 4.6954 l-31.875 0 l0 -22.81488 l4.6954 0 l0 18.11948 z M146.87084 15.42116 l18.35304 24.3802 l-5.90152 0 l-5.13196 -6.79484 l-14.6394 0 l-5.05716 6.79484 l-5.83536 0 z M143.0726 28.31112 l7.5966 0 l-3.798436 -5.06448 z M198.71496 35.114 l2.323944 -0.034844 l0.06957 4.64856 l-2.32414 0.034805 c-0.361758 0.005508 -0.77086 0.011797 -1.217384 0.011797 c-3.227928 0 -8.40516 -0.320156 -11.67572 -3.542304 c-1.455976 -1.434532 -2.373084 -3.258008 -2.739572 -5.43984 l-8.41088 0 l-0.033203 8.97928 l-4.64912 -0.017266 l0.074805 -20.25476 l0 -2.327032 l0.008633 0 l0 -0.008633 l2.322304 0.008633 l21.90248 0 c2.945664 0 7.32768 1.813556 7.32768 6.80976 c0 4.99648 -4.07232 6.81004 -6.80976 6.81004 l-6.96512 0 c0.250859 0.850392 0.656836 1.558476 1.234688 2.127928 c2.336952 2.301916 7.21596 2.22918 9.5608 2.193868 z M174.78264 26.143 l20.08128 -0.000039 c0.202969 -0.00707 0.808516 -0.083438 1.307616 -0.359414 c0.432148 -0.239102 0.873712 -0.640116 0.873712 -1.801524 c0 -0.933828 -0.315976 -1.439452 -1.127656 -1.80332 c-0.737656 -0.330625 -1.543048 -0.357305 -1.550624 -0.357305 l-19.58432 0 l0 4.3216 z"></path>
        </g>
        <g id="SvgjsG1010" featureKey="sloganFeature-0"
           transform="matrix(0.9460329413414001,0,0,0.9460329413414001,143.27238085122437,79.61389509953807)"
           fill="url(#SvgjsLinearGradient1023)">
            <path d="M7.695313 5.888672 c2.763672 0 4.482422 2.050781 4.482422 4.560547 c0 2.568359 -1.71875 4.492188 -4.482422 4.492188 l-2.939453 0 l0 5.058594 l-2.929687 0 l0 -14.111328 l5.869141 0 z M7.207031 12.490234 c1.464844 0 2.148438 -0.810547 2.148438 -2.080078 c0 -1.220703 -0.683594 -2.070312 -2.148437 -2.070312 l-2.451172 0 l0 4.150391 l2.451172 0 z M26.901855 5.888672 l2.929688 0 l0 14.111328 l-2.929687 0 l0 -5.800781 l-5.966797 0 l0 5.800781 l-2.929687 0 l0 -14.111328 l2.929688 0 l0 5.761719 l5.966797 0 l0 -5.761719 z M42.719727 5.888672 c2.763672 0 4.482422 2.050781 4.482422 4.560547 c0 2.568359 -1.71875 4.492188 -4.482422 4.492188 l-2.939453 0 l0 5.058594 l-2.929687 0 l0 -14.111328 l5.869141 0 z M42.231445 12.490234 c1.464844 0 2.148438 -0.810547 2.148438 -2.080078 c0 -1.220703 -0.683594 -2.070312 -2.148437 -2.070312 l-2.451172 0 l0 4.150391 l2.451172 0 z M69.775391 8.466797 l-5.234375 0 l0 3.203125 l4.638672 0 l0 2.548828 l-4.638672 0 l0 3.193359 l5.234375 0 l0 2.587891 l-8.183594 0 l0 -14.111328 l8.183594 0 l0 2.578125 z M85.134277 5.888672 l3.115234 0 l-5.214844 14.111328 l-3.222656 0 l-5.185547 -14.111328 l3.105469 0 l3.701172 10.693359 z M101.918946 8.466797 l-5.234375 0 l0 3.203125 l4.638672 0 l0 2.548828 l-4.638672 0 l0 3.193359 l5.234375 0 l0 2.587891 l-8.183594 0 l0 -14.111328 l8.183594 0 l0 2.578125 z M117.941895 5.888672 l2.919922 0 l0 14.111328 l-3.388672 0 l-6.25 -10.087891 l0 10.087891 l-2.919922 0 l0 -14.111328 l3.349609 0 l6.289063 10.029297 l0 -10.029297 z M136.064454 5.888672 l0 2.578125 l-3.349609 0 l0 11.533203 l-2.900391 0 l0 -11.533203 l-3.369141 0 l0 -2.578125 l9.619141 0 z M154.897461 20.195313 c-3.027344 0 -5.390625 -1.455078 -5.820312 -4.101562 l3.027344 -0.693359 c0.195313 1.582031 1.357422 2.402344 2.910156 2.402344 c1.191406 0 2.138672 -0.527344 2.128906 -1.71875 c-0.009766 -1.328125 -1.572266 -1.748047 -3.291016 -2.275391 c-2.070312 -0.644531 -4.287109 -1.40625 -4.287109 -4.003906 c0 -2.626953 2.148438 -4.111328 4.980469 -4.111328 c2.480469 0 4.980469 1.005859 5.546875 3.710938 l-2.832031 0.703125 c-0.263672 -1.40625 -1.210937 -2.021484 -2.539062 -2.021484 c-1.181641 0 -2.1875 0.488281 -2.1875 1.650391 c0 1.083984 1.386719 1.445313 2.988281 1.923828 c2.128906 0.644531 4.648438 1.464844 4.648438 4.277344 c0 2.998047 -2.509766 4.257813 -5.273437 4.257813 z M172.492676 20.195313 c-4.150391 0 -7.216797 -2.832031 -7.216797 -7.255859 c0 -4.433594 3.066406 -7.246094 7.216797 -7.246094 c4.140625 0 7.207031 2.8125 7.207031 7.246094 c0 4.423828 -3.066406 7.255859 -7.207031 7.255859 z M172.492676 17.509766 c2.431641 0 4.296875 -1.708984 4.296875 -4.570312 c0 -2.851562 -1.865234 -4.550781 -4.296875 -4.550781 s-4.296875 1.699219 -4.296875 4.550781 c0 2.861328 1.865234 4.570313 4.296875 4.570313 z M190.986328 20.195313 c-3.095703 0 -5.517578 -1.582031 -5.517578 -5.136719 l0 -9.169922 l2.929688 0 l0 8.769531 c0 2.148438 1.142578 2.949219 2.587891 2.949219 c1.455078 0 2.607422 -0.810547 2.607422 -2.949219 l0 -8.769531 l2.929688 0 l0 9.169922 c0 3.554688 -2.431641 5.136719 -5.537109 5.136719 z M210.700684 20 l-3.671875 -6.210937 l-0.849609 0 l0 6.210938 l-2.929687 0 l0 -14.111328 l5.117188 0 c3.193359 0 4.541016 1.884766 4.541016 4.21875 c0 1.894531 -1.074219 3.125 -2.988281 3.535156 l4.248047 6.357422 l-3.466797 0 z M206.179199 8.320313 l0 3.369141 l1.728516 0 c1.5625 0 2.197266 -0.664062 2.197266 -1.679687 c0 -1.005859 -0.634766 -1.689453 -2.197266 -1.689453 l-1.728516 0 z M225.932617 20.195313 c-4.150391 0 -7.216797 -2.822266 -7.216797 -7.255859 s3.066406 -7.246094 7.216797 -7.246094 c3.144531 0 5.664063 1.611328 6.669922 4.287109 l-2.734375 0.996094 c-0.625 -1.640625 -2.119141 -2.587891 -3.935547 -2.587891 c-2.431641 0 -4.296875 1.699219 -4.296875 4.550781 s1.865234 4.560547 4.296875 4.560547 c1.816406 0 3.310547 -0.957031 3.935547 -2.597656 l2.734375 0.996094 c-1.005859 2.675781 -3.525391 4.296875 -6.669922 4.296875 z M238.371582 20 l0 -14.111328 l2.929688 0 l0 14.111328 l-2.929687 0 z M257.949219 5.888672 l2.919922 0 l0 14.111328 l-3.388672 0 l-6.25 -10.087891 l0 10.087891 l-2.919922 0 l0 -14.111328 l3.349609 0 l6.289063 10.029297 l0 -10.029297 z M273.9917 20.195313 c-4.072266 0 -7.070312 -2.8125 -7.070312 -7.216797 c0 -4.462891 3.066406 -7.285156 7.216797 -7.285156 c2.724609 0 4.980469 1.201172 6.210938 3.320313 l-2.568359 1.367188 c-0.742187 -1.445312 -2.070312 -2.138672 -3.642578 -2.138672 c-2.441406 0 -4.277344 1.679688 -4.277344 4.667969 c0 2.880859 1.71875 4.736328 4.384766 4.736328 c1.806641 0 3.466797 -0.898437 3.867188 -2.958984 l-3.857422 0 l0 -2.353516 l6.630859 0 l0 7.666016 l-2.304687 0 l0 -1.953125 c-0.908203 1.337891 -2.431641 2.148438 -4.589844 2.148438 z"></path>
        </g>
    </g>
</svg>
	