<svg width="1200" height="1200" xmlns="http://www.w3.org/2000/svg" xmlns:xlink="http://www.w3.org/1999/xlink" version="1.1"><g transform="scale(12.075342938427145) translate(-0.03119701809353259, -0.26513142055934935)">            <linearGradient id="SvgjsLinearGradient7724"><stop id="SvgjsStop7725" stop-color="#905e26" offset="0"/><stop id="SvgjsStop7726" stop-color="#f5ec9b" offset="0.5"/><stop id="SvgjsStop7727" stop-color="#905e26" offset="1"/></linearGradient><linearGradient id="SvgjsLinearGradient7728"><stop id="SvgjsStop7729" stop-color="#905e26" offset="0"/><stop id="SvgjsStop7730" stop-color="#f5ec9b" offset="0.5"/><stop id="SvgjsStop7731" stop-color="#905e26" offset="1"/></linearGradient><linearGradient id="SvgjsLinearGradient7732"><stop id="SvgjsStop7733" stop-color="#905e26" offset="0"/><stop id="SvgjsStop7734" stop-color="#f5ec9b" offset="0.5"/><stop id="SvgjsStop7735" stop-color="#905e26" offset="1"/></linearGradient>            <g fill="url(#SvgjsLinearGradient7724)"><linearGradient id="SvgjsLinearGradient7724"><stop id="SvgjsStop7725" stop-color="#905e26" offset="0"/><stop id="SvgjsStop7726" stop-color="#f5ec9b" offset="0.5"/><stop id="SvgjsStop7727" stop-color="#905e26" offset="1"/></linearGradient><linearGradient id="SvgjsLinearGradient7728"><stop id="SvgjsStop7729" stop-color="#905e26" offset="0"/><stop id="SvgjsStop7730" stop-color="#f5ec9b" offset="0.5"/><stop id="SvgjsStop7731" stop-color="#905e26" offset="1"/></linearGradient><linearGradient id="SvgjsLinearGradient7732"><stop id="SvgjsStop7733" stop-color="#905e26" offset="0"/><stop id="SvgjsStop7734" stop-color="#f5ec9b" offset="0.5"/><stop id="SvgjsStop7735" stop-color="#905e26" offset="1"/></linearGradient><path xmlns="http://www.w3.org/2000/svg" d="M80.4,23.2H19.6c-8,0-14.6,6.5-14.6,14.6c0,5.8,4.7,10.5,10.5,10.5c5.8,0,10.5-4.7,10.5-10.5c0-3.6-2.9-6.5-6.5-6.5  c-3.6,0-6.5,2.9-6.5,6.5c0,1.3,1.1,2.4,2.4,2.4c1.3,0,2.4-1.1,2.4-2.4c0-0.9,0.7-1.6,1.6-1.6c0.9,0,1.6,0.7,1.6,1.6  c0,3.1-2.5,5.7-5.7,5.7c-3.1,0-5.7-2.5-5.7-5.7c0-5.4,4.4-9.7,9.7-9.7h60.8c5.4,0,9.7,4.4,9.7,9.7c0,3.1-2.5,5.7-5.7,5.7  c-3.1,0-5.7-2.5-5.7-5.7c0-0.9,0.7-1.6,1.6-1.6c0.9,0,1.6,0.7,1.6,1.6c0,1.3,1.1,2.4,2.4,2.4c1.3,0,2.4-1.1,2.4-2.4  c0-3.6-2.9-6.5-6.5-6.5c-3.6,0-6.5,2.9-6.5,6.5c0,5.8,4.7,10.5,10.5,10.5c5.8,0,10.5-4.7,10.5-10.5C95,29.8,88.5,23.2,80.4,23.2z"/><path xmlns="http://www.w3.org/2000/svg" d="M34.2,74.3V33.8c0-1.3-1.1-2.4-2.4-2.4c-1.3,0-2.4,1.1-2.4,2.4v40.5c0,1.3,1.1,2.4,2.4,2.4C33.1,76.8,34.2,75.7,34.2,74.3z"/><path xmlns="http://www.w3.org/2000/svg" d="M46.4,74.3V33.8c0-1.3-1.1-2.4-2.4-2.4c-1.3,0-2.4,1.1-2.4,2.4v40.5c0,1.3,1.1,2.4,2.4,2.4C45.3,76.8,46.4,75.7,46.4,74.3z"/><path xmlns="http://www.w3.org/2000/svg" d="M58.5,74.3V33.8c0-1.3-1.1-2.4-2.4-2.4c-1.3,0-2.4,1.1-2.4,2.4v40.5c0,1.3,1.1,2.4,2.4,2.4C57.4,76.8,58.5,75.7,58.5,74.3z"/><path xmlns="http://www.w3.org/2000/svg" d="M70.7,74.3V33.8c0-1.3-1.1-2.4-2.4-2.4c-1.3,0-2.4,1.1-2.4,2.4v40.5c0,1.3,1.1,2.4,2.4,2.4C69.6,76.8,70.7,75.7,70.7,74.3z"/></g>        </g></svg>